<svg id="Layer_1" data-name="Layer 1" xmlns="http://www.w3.org/2000/svg" width="520" height="264" viewBox="0 0 520 264"><defs><style>.cls-1{fill:#002f44;}.cls-2{fill:#0093d2;}.cls-3,.cls-4{fill:none;stroke:#fff;stroke-miterlimit:10;}.cls-3{stroke-width:2px;}.cls-5,.cls-6,.cls-9{fill:#fff;}.cls-5{opacity:0.47;}.cls-5,.cls-7,.cls-8,.cls-9{isolation:isolate;}.cls-7,.cls-8{fill:#f9f9f9;}.cls-7{opacity:0.56;}.cls-8{opacity:0.4;}.cls-9{opacity:0.67;}</style></defs><path class="cls-1" d="M520,0H0V264H520Z"/><rect class="cls-2" x="77" y="53.6" width="183" height="210.4"/><path class="cls-3" d="M37.1,200.1V32.7a9.26,9.26,0,0,1,9.3-9.2H280.2a9.26,9.26,0,0,1,9.3,9.2V210.5"/><path class="cls-3" d="M29.4,225.1h267c8.1,0,14.6-4.2,14.6-9.5v-4.4H14.8v4.4C14.8,220.8,21.4,225.1,29.4,225.1Z"/><polyline class="cls-3" points="51 190.2 51 36 264.9 36"/><line class="cls-4" x1="396.9" y1="22" x2="396.9" y2="44"/><line class="cls-4" x1="407.9" y1="33" x2="385.9" y2="33"/><line class="cls-4" x1="318.9" y1="37" x2="318.9" y2="53"/><line class="cls-4" x1="326.9" y1="45" x2="310.9" y2="45"/><g id="Monogram"><rect class="cls-5" x="97.9" y="138" width="135" height="4"/><rect class="cls-5" x="97.9" y="152" width="142" height="4"/><rect class="cls-5" x="97.9" y="166" width="125" height="4"/><rect class="cls-5" x="97.9" y="180" width="142" height="4"/><rect class="cls-5" x="97.9" y="194" width="99" height="4"/><rect id="Rectangle-path" class="cls-1" x="95.9" y="71.6" width="60.9" height="60.9"/><path id="Shape" class="cls-6" d="M110.5,92a1.3,1.3,0,0,0-.5-1.3l-3.8-4.6v-.7H118l9.2,20.1,8.1-20.1h11.3v.7l-3.3,3.1a1.09,1.09,0,0,0-.4.9v23a.87.87,0,0,0,.4.9l3.2,3.1v.7h-16v-.7l3.3-3.2c.3-.3.3-.4.3-.9V94.4l-9.2,23.3h-1.2L113,94.4v15.7a2,2,0,0,0,.6,1.8l4.3,5.2v.7H105.7v-.7l4.3-5.2a2,2,0,0,0,.6-1.8Z"/></g><ellipse class="cls-3" cx="352.5" cy="172.6" rx="27.8" ry="29.3"/><ellipse class="cls-3" cx="425.9" cy="172.6" rx="27.8" ry="29.3"/><path class="cls-3" d="M379.6,165.8a28.84,28.84,0,0,1,18.8,0"/><path class="cls-3" d="M454.8,174.1l23.7-34.8c3.8-5.6,10.4-1.6,10.4,6.3v10.6"/><path class="cls-3" d="M326.5,178.7l46.1-46.3a8,8,0,0,1,13.6,5.7v9.5"/><path class="cls-7" d="M440.4,147.5a26.4,26.4,0,0,0-14.4-4.3c-15.4,0-27.8,13.1-27.8,29.3a30.58,30.58,0,0,0,3.3,13.9Z"/><path class="cls-7" d="M366.1,147.1a26.4,26.4,0,0,0-14.4-4.3c-15.4,0-27.8,13.1-27.8,29.3a30.58,30.58,0,0,0,3.3,13.9Z"/><rect class="cls-8" x="354.4" y="83.1" width="15.3" height="15.3"/><rect class="cls-8" x="378.3" y="83.1" width="15.3" height="15.3"/><rect class="cls-8" x="402.2" y="83.1" width="15.3" height="15.3"/><rect class="cls-8" x="426.2" y="83.1" width="15.3" height="15.3"/><rect class="cls-8" x="450.1" y="83.1" width="15.3" height="15.3"/><rect class="cls-8" x="474" y="83.1" width="15.3" height="15.3"/><rect class="cls-8" x="498" y="83.1" width="15.3" height="15.3"/><rect class="cls-8" x="365.9" y="104.2" width="15.3" height="15.3"/><rect class="cls-8" x="389.8" y="104.2" width="15.3" height="15.3"/><rect class="cls-8" x="413.7" y="104.2" width="15.3" height="15.3"/><rect class="cls-8" x="437.7" y="104.2" width="15.3" height="15.3"/><rect class="cls-8" x="461.6" y="104.2" width="15.3" height="15.3"/><rect class="cls-8" x="485.5" y="104.2" width="15.3" height="15.3"/><rect class="cls-8" x="376.4" y="126.2" width="15.3" height="15.3"/><rect class="cls-8" x="400.3" y="126.2" width="110.1" height="15.3"/><path class="cls-6" d="M205,116.8l-11.8-7,11.8-6.9,11.8,6.9Z"/><path class="cls-6" d="M204.9,83l-11.8,7,11.8,6.9L216.7,90Z"/><path class="cls-9" d="M216.8,76l-11.9,7,19.8,11.7v10.5L205,116.8l11.9,7,20-11.8V87.9Z"/><path class="cls-9" d="M185.1,105.1V94.6L204.9,83,193,76,172.9,87.9V112l20,11.8,12-7Z"/><rect class="cls-8" x="509.5" y="104.2" width="10.4" height="15.3"/></svg>