<svg id="Layer_1" data-name="Layer 1" xmlns="http://www.w3.org/2000/svg" width="570" height="312" viewBox="0 0 570 312"><defs><style>.cls-1{fill:#ff9e45;}.cls-2{fill:#0095d3;}.cls-3{fill:#fff;}.cls-4,.cls-5{fill:#29363d;}.cls-5,.cls-6{fill-opacity:0.4;fill-rule:evenodd;}</style></defs><path class="cls-1" d="M362.52,111.29s16.34-10,53.32-16.23,56.42-3.4,56.42-3.4V279H362.52Z"/><rect x="398.07" y="153.8" width="3.09" height="13.91"/><rect x="398.07" y="189.35" width="3.09" height="13.91"/><rect x="398.07" y="224.9" width="3.09" height="13.91"/><rect x="421.25" y="153.8" width="3.09" height="13.91"/><rect x="421.25" y="189.35" width="3.09" height="13.91"/><rect x="421.25" y="224.9" width="3.09" height="13.91"/><rect x="444.44" y="153.8" width="3.09" height="13.91"/><rect x="444.44" y="189.35" width="3.09" height="13.91"/><rect x="444.44" y="224.9" width="3.09" height="13.91"/><path class="cls-2" d="M198.19,46.47c111.34-24.12,186-18.95,186-18.95V279H48.75V99.86S122.64,62.83,198.19,46.47Z"/><path class="cls-3" d="M307.25,275.11a.75.75,0,0,1-.75-.75V45.6a.75.75,0,0,1,1.5,0V274.36A.75.75,0,0,1,307.25,275.11Z"/><path class="cls-3" d="M273.64,279.75a.76.76,0,0,1-.75-.75V56.42a.75.75,0,0,1,1.5,0V279A.75.75,0,0,1,273.64,279.75Z"/><path class="cls-3" d="M239.64,273.55h0a.75.75,0,0,1-.74-.75l.89-202.4a.76.76,0,0,1,.75-.75h0a.74.74,0,0,1,.74.75l-.89,202.4A.75.75,0,0,1,239.64,273.55Z"/><path class="cls-3" d="M207.18,273.57a.75.75,0,0,1-.75-.75V76.52a.75.75,0,1,1,1.5,0v196.3A.76.76,0,0,1,207.18,273.57Z"/><path class="cls-3" d="M173.17,273.57a.76.76,0,0,1-.75-.75V87.33a.75.75,0,0,1,1.5,0V272.82A.75.75,0,0,1,173.17,273.57Z"/><path class="cls-3" d="M139.17,273.56a.75.75,0,0,1-.75-.74l-.77-129.08a.76.76,0,0,1,.75-.75h0a.74.74,0,0,1,.75.74l.77,129.08a.75.75,0,0,1-.75.75Z"/><path class="cls-3" d="M306.87,135.23H110.58a.75.75,0,0,1,0-1.5H306.87a.75.75,0,0,1,0,1.5Z"/><path class="cls-3" d="M306.88,102.77h0l-144.17-.83a.75.75,0,0,1,0-1.5h0l144.17.83a.75.75,0,0,1,0,1.5Z"/><path class="cls-3" d="M306.87,169.23H93.57a.75.75,0,1,1,0-1.5h213.3a.75.75,0,0,1,0,1.5Z"/><path class="cls-3" d="M306.87,200.15H93.57a.75.75,0,0,1,0-1.5h213.3a.75.75,0,0,1,0,1.5Z"/><path class="cls-3" d="M306.87,234.15H88.94a.75.75,0,0,1,0-1.5H306.87a.75.75,0,0,1,0,1.5Z"/><path class="cls-4" d="M561,278.68H10a2,2,0,0,1,0-4H561a2,2,0,0,1,0,4Z"/><rect class="cls-4" x="483.28" y="221.97" width="1.54" height="53.03" transform="translate(-0.5 0.97) rotate(-0.11)"/><rect class="cls-4" x="524.81" y="240.36" width="1.54" height="35.55"/><path class="cls-5" d="M495.46,246.54h58.72c-.36-16.28-13.37-29.37-29.36-29.37S495.81,230.26,495.46,246.54Z"/><path class="cls-6" d="M527.9,237.26h0a44.82,44.82,0,0,0-89.64,0H527.9Z"/></svg>