<svg id="Layer_1" data-name="Layer 1" xmlns="http://www.w3.org/2000/svg" xmlns:xlink="http://www.w3.org/1999/xlink" width="570" height="420" viewBox="0 0 570 420"><defs><style>.cls-1{fill:#c4c4c4;}.cls-10,.cls-11,.cls-2,.cls-9{fill:none;}.cls-13,.cls-3{fill:#022537;}.cls-4,.cls-5{fill:#fff;}.cls-4{fill-opacity:0.2;}.cls-6{mask:url(#mask);}.cls-7{fill:#0293d2;}.cls-8{clip-path:url(#clip-path);}.cls-10,.cls-11,.cls-9{stroke:#000;}.cls-11,.cls-9{stroke-miterlimit:10;stroke-width:2.27px;}.cls-10,.cls-11{stroke-linecap:round;}.cls-10{stroke-linejoin:round;stroke-width:2px;}.cls-12{mask:url(#mask-2);}.cls-13{fill-opacity:0.3;}.cls-14{fill:url(#linear-gradient);}.cls-15{fill:url(#linear-gradient-2);}</style><mask id="mask" x="286.27" y="162.23" width="267.43" height="246.57" maskUnits="userSpaceOnUse"><g id="mask0"><rect class="cls-1" x="286.27" y="163.79" width="90.96" height="107.9"/></g></mask><clipPath id="clip-path"><rect class="cls-2" x="42.82" y="198.55" width="162.39" height="135.33"/></clipPath><mask id="mask-2" x="105.24" y="133.47" width="94.53" height="173.25" maskUnits="userSpaceOnUse"><g id="mask1"><rect class="cls-1" x="105.24" y="133.47" width="94.53" height="65.1"/></g></mask><linearGradient id="linear-gradient" x1="387.77" y1="1094.89" x2="445.85" y2="1015.17" gradientTransform="matrix(1, 0, 0, -1, 0, 1348)" gradientUnits="userSpaceOnUse"><stop offset="0.12" stop-color="#fc9b3a"/><stop offset="0.76" stop-color="#e66e0c"/></linearGradient><linearGradient id="linear-gradient-2" x1="334.65" y1="1085.06" x2="366.78" y2="1040.95" xlink:href="#linear-gradient"/></defs><rect class="cls-2" x="176.48" y="49.72" width="170.88" height="206.55"/><path class="cls-3" d="M370,269H92c-3,0-5.49-1.66-5.49-3.67V25.67C86.51,23.66,89,22,92,22H370c3,0,5.48,1.66,5.48,3.67V265.23C375.61,267.24,373,269,370,269Z"/><path class="cls-4" d="M282.47,69.83V58.75H254.08V78.43h24.76v8.21H254.08v21.67h28.39V96.23h8.26v20.29H235.44v-8.21h8.5V58.88h-8.5V50.54h55.29V69.83Z"/><path class="cls-4" d="M241.71,162.53v-7.45H225.39v13.26h14.09v5.56H225.39v14.65H231v5.56H213.14v-5.56h5.57V155.08h-5.57v-5.56H247v13Z"/><path class="cls-4" d="M315.69,163.42a13.46,13.46,0,0,1-3.71,9.85c-2.47,2.52-6.55,3.79-12.49,3.79H293.8v11.49h5.69v5.56H281.81v-5.56h5.44V155.08h-5.44v-5.56H298a32.5,32.5,0,0,1,10.39,1.39,10,10,0,0,1,5.56,4.42A15.9,15.9,0,0,1,315.69,163.42Zm-6.67-.13c0-2.78-.75-4.8-2.35-6.06s-4.33-1.9-8.29-1.9H293.8v16.55h4.09a21.75,21.75,0,0,0,6.43-.76,6.49,6.49,0,0,0,3.58-2.65A10.34,10.34,0,0,0,309,163.29Z"/><path class="cls-4" d="M224.32,231.23V225H219v19.46h3.34v3.2H212v-3.2h3.21V225H210v6.28H206.9v-9.48h20.51v9.48Z"/><path class="cls-4" d="M275.57,234.62a13.81,13.81,0,0,1-1.7,6.81,11.8,11.8,0,0,1-4.62,4.57,14.41,14.41,0,0,1-13.47-.12,11.84,11.84,0,0,1-4.5-4.7,13.59,13.59,0,0,1-1.57-6.68,12.73,12.73,0,0,1,1.7-6.56,12.34,12.34,0,0,1,4.49-4.58,12.93,12.93,0,0,1,6.55-1.61,13.6,13.6,0,0,1,6.8,1.73,11.89,11.89,0,0,1,4.62,4.58A12.07,12.07,0,0,1,275.57,234.62Zm-12.87,9.65a8.4,8.4,0,0,0,4.61-1.36,9,9,0,0,0,3.16-3.59,10.62,10.62,0,0,0,1.09-4.7,9.53,9.53,0,0,0-1.21-4.83,8.22,8.22,0,0,0-3.28-3.46,8.34,8.34,0,0,0-4.62-1.24,7.91,7.91,0,0,0-4.49,1.24,8.35,8.35,0,0,0-3,3.46,10.83,10.83,0,0,0-1.1,4.83,11.44,11.44,0,0,0,1.1,5.07,8.32,8.32,0,0,0,3,3.47A10,10,0,0,0,262.7,244.27Z"/><path class="cls-4" d="M302.27,244.43H313.4v-5h3.19v8.15H297.86v-3.06l13.46-19.49h-9.79v4.46h-3.18v-7.77H316v2.8Z"/><path class="cls-5" d="M157,115.11a54.27,54.27,0,0,1-38.63-16l-7.65-7.64,1.6-1.61,7.65,7.65a52.38,52.38,0,0,0,74.07,0l6.84-6.84L194,83.82a52.38,52.38,0,0,0-74.07,0l-.85.85-1.6-1.6.85-.85a54.62,54.62,0,0,1,77.27,0L204,90.67l-8.44,8.44A54.28,54.28,0,0,1,157,115.11Z"/><path class="cls-5" d="M156.92,107.26A16.38,16.38,0,1,1,173.3,90.88,16.4,16.4,0,0,1,156.92,107.26Zm0-30.49A14.11,14.11,0,1,0,171,90.88,14.13,14.13,0,0,0,156.92,76.77Z"/><path class="cls-5" d="M156.92,101A10.08,10.08,0,1,1,167,90.88,10.09,10.09,0,0,1,156.92,101Zm0-17.89a7.82,7.82,0,1,0,7.81,7.81A7.82,7.82,0,0,0,156.92,83.07Z"/><path class="cls-3" d="M430.49,408A123.06,123.06,0,1,1,553.55,284.94,123.2,123.2,0,0,1,430.49,408Zm0-242.73A119.67,119.67,0,1,0,550.15,284.94,119.81,119.81,0,0,0,430.49,165.27Z"/><g class="cls-6"><path class="cls-5" d="M430.41,408.8A123.29,123.29,0,1,1,553.7,285.52,123.42,123.42,0,0,1,430.41,408.8Zm0-243.17A119.89,119.89,0,1,0,550.3,285.52,120,120,0,0,0,430.41,165.63Z"/></g><rect class="cls-7" x="42.82" y="198.55" width="162.39" height="135.33"/><g class="cls-8"><path class="cls-9" d="M136.84,232.09V151.55c0-5.52,3.8-10.08,8.49-10.08s8.5,4.56,8.5,10.08v79.1"/><path class="cls-10" d="M153.83,229.79v-70.3c0-5.53,3.81-10.09,8.49-10.09s8.5,4.56,8.5,10.09v74.86"/><path class="cls-10" d="M136.83,232V160.15c0-5.29-3.83-9.62-8.59-9.62h-.93c-4.67,0-8.6,4.33-8.6,9.62V261"/><path d="M142.47,328.28a1.11,1.11,0,0,1-.74-.27L134.61,322a174.12,174.12,0,0,1-53.78-81.63l-6.76-22a11.33,11.33,0,0,1,21.66-6.67l6.75,22a154.44,154.44,0,0,0,7.67,19.85,1.13,1.13,0,0,1-.54,1.51,1.14,1.14,0,0,1-1.51-.55,154.56,154.56,0,0,1-7.78-20.14l-6.76-22a9.06,9.06,0,0,0-17.32,5.33l6.76,22a171.85,171.85,0,0,0,53.07,80.56l7.13,6.06a1.12,1.12,0,0,1,.13,1.59A1.1,1.1,0,0,1,142.47,328.28Z"/><path class="cls-11" d="M170.82,174.16c0-5.5,3.81-10,8.49-10s8.5,4.54,8.5,10V305.72"/></g><g class="cls-12"><path class="cls-5" d="M136.83,233.09a1,1,0,0,1-1-1V151.55c0-6.11,4.26-11.08,9.5-11.08s9.5,5,9.5,11.08v79.1a1,1,0,0,1-2,0v-79.1c0-5-3.37-9.08-7.5-9.08s-7.5,4.07-7.5,9.08v80.54A1,1,0,0,1,136.83,233.09Z"/><path class="cls-5" d="M170.82,235.35a1,1,0,0,1-1-1V159.49c0-5-3.36-9.09-7.5-9.09s-7.49,4.08-7.49,9.09v70.3a1,1,0,0,1-2,0v-70.3c0-6.12,4.26-11.09,9.49-11.09s9.5,5,9.5,11.09v74.86A1,1,0,0,1,170.82,235.35Z"/><path class="cls-5" d="M118.71,264a1,1,0,0,1-1-1V160.15c0-5.86,4.3-10.62,9.6-10.62h.93c5.29,0,9.59,4.76,9.59,10.62V232a1,1,0,0,1-2,0V160.15c0-4.75-3.4-8.62-7.59-8.62h-.93c-4.12,0-7.6,3.95-7.6,8.62V263A1,1,0,0,1,118.71,264Z"/><path class="cls-5" d="M187.81,306.72a1,1,0,0,1-1-1V174.16c0-5-3.36-9-7.5-9s-7.49,4.06-7.49,9v61.78a1,1,0,0,1-2,0V174.16c0-6.08,4.26-11,9.49-11s9.5,5,9.5,11V305.72A1,1,0,0,1,187.81,306.72Z"/></g><path class="cls-13" d="M447.62,322.51l-3.51-8.09a33,33,0,0,0,19.52-30.22,33.32,33.32,0,0,0-23.92-31.81l2.46-8.44a41.94,41.94,0,0,1,5.45,78.56Z"/><path class="cls-13" d="M468.39,345.71l-4.93-7.21a65.19,65.19,0,0,0-11.08-114.23l3.34-8.08a74,74,0,0,1,12.67,129.52Z"/><path class="cls-13" d="M482.64,369.78l-4.93-7.2a93.81,93.81,0,0,0-8.44-160.81l4.22-7.73a102.53,102.53,0,0,1,9.15,175.74Z"/><path class="cls-14" d="M351.56,260l76.88-51.5V349.92l-76.88-46Z"/><path class="cls-15" d="M365.82,254.32H331.51V310h34.31Z"/></svg>