<svg id="Layer_1" data-name="Layer 1" xmlns="http://www.w3.org/2000/svg" xmlns:xlink="http://www.w3.org/1999/xlink" width="1032" height="456" viewBox="0 0 1032 456"><defs><style>.cls-1{fill:url(#linear-gradient);}.cls-2,.cls-3,.cls-4{opacity:0.74;isolation:isolate;}.cls-2{fill:url(#linear-gradient-2);}.cls-3{fill:url(#linear-gradient-3);}.cls-4{fill:url(#linear-gradient-4);}.cls-5{fill:url(#linear-gradient-5);}.cls-6{fill:url(#linear-gradient-6);}.cls-7{fill:url(#linear-gradient-7);}.cls-8{fill:url(#linear-gradient-8);}.cls-9{fill:url(#linear-gradient-9);}.cls-10{fill:url(#linear-gradient-10);}.cls-11{fill:url(#linear-gradient-11);}.cls-12{fill:url(#linear-gradient-12);}.cls-13{fill:url(#linear-gradient-13);}.cls-14{fill:#fff;}.cls-15{opacity:0.5;}.cls-16{fill:url(#linear-gradient-14);}.cls-17{fill:url(#linear-gradient-15);}.cls-18{fill:url(#linear-gradient-16);}</style><linearGradient id="linear-gradient" x1="687.96" y1="2097.08" x2="148.82" y2="1775.98" gradientTransform="translate(0 -1790)" gradientUnits="userSpaceOnUse"><stop offset="0" stop-color="#81c5ec" stop-opacity="0"/><stop offset="0.42" stop-color="#00b7d6" stop-opacity="0.3"/><stop offset="1" stop-color="#81c5ec" stop-opacity="0"/></linearGradient><linearGradient id="linear-gradient-2" x1="759.65" y1="1962.61" x2="545.36" y2="2176.32" gradientTransform="translate(0 -1790)" gradientUnits="userSpaceOnUse"><stop offset="0.01" stop-color="#80c4eb" stop-opacity="0"/><stop offset="0.17" stop-color="#58c0e4" stop-opacity="0.15"/><stop offset="0.53" stop-color="#00b7d6" stop-opacity="0.5"/><stop offset="0.6" stop-color="#06b8d7" stop-opacity="0.43"/><stop offset="0.69" stop-color="#18b9da" stop-opacity="0.33"/><stop offset="0.8" stop-color="#36bcdf" stop-opacity="0.22"/><stop offset="0.91" stop-color="#5ec1e5" stop-opacity="0.09"/><stop offset="1" stop-color="#80c4eb" stop-opacity="0"/></linearGradient><linearGradient id="linear-gradient-3" x1="544.31" y1="1082.51" x2="340.55" y2="961.16" gradientTransform="matrix(1, 0, 0, -1, 0, 1348)" xlink:href="#linear-gradient-2"/><linearGradient id="linear-gradient-4" x1="275.3" y1="2032.42" x2="158.47" y2="2149.27" xlink:href="#linear-gradient-2"/><linearGradient id="linear-gradient-5" x1="332.24" y1="2104.86" x2="496.87" y2="2104.86" gradientTransform="translate(0 -1790)" gradientUnits="userSpaceOnUse"><stop offset="0" stop-color="#ef872b"/><stop offset="0.51" stop-color="#f3a72b"/><stop offset="1" stop-color="#f6c12b"/></linearGradient><linearGradient id="linear-gradient-6" x1="471.91" y1="2058.22" x2="564.56" y2="2058.22" gradientTransform="translate(0 -1790)" gradientUnits="userSpaceOnUse"><stop offset="0" stop-color="#f37721"/><stop offset="0.61" stop-color="#c25823"/><stop offset="1" stop-color="#a84724"/></linearGradient><linearGradient id="linear-gradient-7" x1="646.09" y1="2168.44" x2="646.09" y2="2122.48" xlink:href="#linear-gradient-6"/><linearGradient id="linear-gradient-8" x1="165.88" y1="2151.7" x2="165.88" y2="2071.08" xlink:href="#linear-gradient-6"/><linearGradient id="linear-gradient-9" x1="39.96" y1="2094.98" x2="39.96" y2="2053.75" gradientTransform="translate(0 -1790)" gradientUnits="userSpaceOnUse"><stop offset="0" stop-color="#1a4277"/><stop offset="0.18" stop-color="#1d487d"/><stop offset="0.43" stop-color="#26598f"/><stop offset="0.71" stop-color="#3574ac"/><stop offset="1" stop-color="#4896d1"/></linearGradient><linearGradient id="linear-gradient-10" x1="946.39" y1="2179.12" x2="946.39" y2="2085.03" xlink:href="#linear-gradient-6"/><linearGradient id="linear-gradient-11" x1="836.31" y1="2122.36" x2="836.31" y2="2065.27" xlink:href="#linear-gradient-9"/><linearGradient id="linear-gradient-12" x1="771.79" y1="2184.51" x2="771.79" y2="2111.94" xlink:href="#linear-gradient-5"/><linearGradient id="linear-gradient-13" x1="357.13" y1="1976.77" x2="635.89" y2="1976.77" gradientTransform="translate(0 -1790)" gradientUnits="userSpaceOnUse"><stop offset="0" stop-color="#3e90d4"/><stop offset="1" stop-color="#56bed1"/></linearGradient><linearGradient id="linear-gradient-14" x1="830.98" y1="1868.39" x2="871.58" y2="1868.39" xlink:href="#linear-gradient-5"/><linearGradient id="linear-gradient-15" x1="854.88" y1="1853.7" x2="895.48" y2="1853.7" xlink:href="#linear-gradient-13"/><linearGradient id="linear-gradient-16" x1="878.62" y1="1867.56" x2="919.22" y2="1867.56" xlink:href="#linear-gradient-6"/></defs><g id="Layer_1-2" data-name="Layer 1"><path class="cls-1" d="M210,1.33,697.18,291.38l-18.36,31L139.51,1.63Z"/><path class="cls-2" d="M652.19,152.8,438.79,279.46,652.51,405.89,866.22,279.46Z"/><polygon class="cls-3" points="654.57 450.63 233.35 199.88 231.27 203.35 646.67 450.63 654.57 450.63"/><path class="cls-4" d="M216.71,231.75,100,300.85l116.8,69,116.91-69Z"/><path class="cls-5" d="M496.87,302.91l-62-36.62L332.24,326.81l62,36.62Z"/><path class="cls-6" d="M529.26,240.88l-57.35,33.78,35.46,20.89,57.19-33.72Z"/><path class="cls-7" d="M646.1,332.48l-38.94,23,38.94,23,38.92-23Z"/><path class="cls-8" d="M165.88,281.08,97.6,321.39l68.28,40.31,68.27-40.31Z"/><path class="cls-9" d="M40,263.75,5.07,284.42,40,305l34.9-20.56Z"/><path class="cls-10" d="M946.24,295l-80.11,47,80.4,47.05,80.13-47.05Z"/><path class="cls-11" d="M836.13,275.13,788.79,304l47.34,28.5,47.7-28.5Z"/><path class="cls-12" d="M752.28,321.94l-39.66,24.35,78.53,48.22L831,370.16Z"/></g><g id="Layer_4" data-name="Layer 4"><path class="cls-13" d="M529.26,104.59,357.13,206.11,463.76,269,635.89,167.54Z"/></g><g id="Layer_2" data-name="Layer 2"><path class="cls-14" d="M254.26,257.46c-5.13,0-9.31-2.77-9.31-6.18s4.18-6.19,9.31-6.19,9.3,2.78,9.3,6.19S259.39,257.46,254.26,257.46Zm0-11.08c-4.46,0-8,2.22-8,4.9s3.6,4.9,8,4.9,8-2.23,8-4.9-3.6-4.9-8-4.9Z"/><path class="cls-14" d="M274.14,246c-5.14,0-9.31-2.78-9.31-6.19s4.17-6.18,9.31-6.18,9.3,2.77,9.3,6.18S279.26,246,274.14,246Zm0-11.09c-4.46,0-8,2.23-8,4.9s3.6,4.91,8,4.91,8-2.23,8-4.91S278.52,234.94,274.14,234.94Z"/><path class="cls-14" d="M233.58,269.59c-5.12,0-9.3-2.78-9.3-6.19s4.18-6.18,9.3-6.18,9.31,2.77,9.31,6.18S238.72,269.59,233.58,269.59Zm0-11.09c-4.45,0-8,2.23-8,4.9s3.6,4.91,8,4.91,8-2.23,8-4.91S238,258.5,233.58,258.5Z"/><path class="cls-14" d="M322.3,321.55l-80.74-47.64.94-.55,102.88-60.6.34.19L426,260.28Zm-78.21-47.64,78.21,46.15,101.21-59.78-78.13-46Z"/><path class="cls-14" d="M293.08,233.3l-10.63-6.16.94-.56,227-133.94L521,98.93ZM285,227.13l8.08,4.69L518.47,98.93l-8.1-4.81Z"/><path class="cls-14" d="M327.26,343.25a1.07,1.07,0,0,1-.52-.14l-128.92-76,1.51-.89L512.69,81.45l139.38,82.31a1,1,0,1,1-1,1.78L512.69,83.84,201.87,267.1,327.8,341.35a1,1,0,0,1-.53,1.9Z"/><g class="cls-15"><path class="cls-14" d="M253.22,274.21a.65.65,0,0,1-.06-1.28L413.06,260a.64.64,0,0,1,.69.58h0a.65.65,0,0,1-.59.69L253.28,274.2Z"/></g><g class="cls-15"><path class="cls-14" d="M323,313.66h-.14a.65.65,0,0,1-.48-.78l21.95-92.83a.65.65,0,0,1,.77-.47h0a.63.63,0,0,1,.48.76h0l-21.95,92.87A.64.64,0,0,1,323,313.66Z"/></g><path class="cls-14" d="M610,245.51l-1.45-1.45,7.66-7.63a9.77,9.77,0,0,0,0-13.79l-.34-.35,1.45-1.45.34.34a11.75,11.75,0,0,1,.1,16.61l-.1.1Z"/><path class="cls-14" d="M860.74,221.85a99.48,99.48,0,0,1-47.59-12.08l-60-32.32,1-1.82c27.29,14.75,60,32.38,60,32.38a97.73,97.73,0,0,0,57.53,11.23c.29,0,28.54-3.1,63.89-7.12l.23,2c-35.36,4-63.62,7.08-63.9,7.12A103.63,103.63,0,0,1,860.74,221.85Z"/><path class="cls-14" d="M957.52,311.72H630.25v-1A36.78,36.78,0,0,1,667,273.91h41.88a27.6,27.6,0,0,0,25-39.14,259.21,259.21,0,0,0-16.16-22.37l1.59-1.32a267.08,267.08,0,0,1,16.34,22.65l.06.11A29.65,29.65,0,0,1,708.91,276H667a34.79,34.79,0,0,0-34.72,33.7h325.2Z"/><path class="cls-14" d="M621.51,249.7A37.39,37.39,0,0,1,599,239.06l-.73-.72,76.48-76.46a35.94,35.94,0,0,1,39.47-7.51l-.82,1.89a33.87,33.87,0,0,0-37.16,7.07l-75,75a35.06,35.06,0,0,0,20.51,9.33Z"/><path class="cls-14" d="M786.37,143.74l-30.78-30.43,4.09-4.29a21.68,21.68,0,0,1,30.61-.19,21.29,21.29,0,0,1,6.43,15.24,21.72,21.72,0,0,1-6.25,15.37Zm-27.86-30.47,27.86,27.54L789,138a19.65,19.65,0,0,0,5.67-13.92,19.22,19.22,0,0,0-5.81-13.78h0a19.63,19.63,0,0,0-27.7.16Z"/><path class="cls-14" d="M773,158.12l-31.62-31.43,15.18-15.36,31.61,31.44Zm-28.71-31.44L773,155.22l12.26-12.43-28.71-28.55Z"/><path class="cls-14" d="M595.69,275.63a1,1,0,0,1-.72-1.75c1.52-1.54,153.11-153.94,160.14-161.14a1,1,0,0,1,1.46,0,1,1,0,0,1,0,1.45c-7,7.2-158.63,159.61-160.15,161.15A1.05,1.05,0,0,1,595.69,275.63Z"/><path class="cls-14" d="M618.82,272.5a1.05,1.05,0,0,1-.73-.29,1,1,0,0,1,0-1.46c.95-.95,95.27-95.93,133.64-134.46a1,1,0,0,1,1.46,0,1,1,0,0,1,0,1.45C714.82,176.27,620.5,271.25,619.53,272.2A1.11,1.11,0,0,1,618.82,272.5Z"/><path class="cls-14" d="M649.43,261.89a1.11,1.11,0,0,1-.72-.29,1,1,0,0,1,0-1.46c.73-.75,74.32-75,112.85-113.67a1,1,0,1,1,1.46,1.45c-38.53,38.7-112.12,112.92-112.85,113.67A1.07,1.07,0,0,1,649.43,261.89Z"/><path class="cls-14" d="M575.53,326.12a1,1,0,0,1-.72-.29,1,1,0,0,1-.24-1.11l20-50.5a1.08,1.08,0,0,1,.23-.34,8.09,8.09,0,0,1,5.93-2.4,7.67,7.67,0,0,1,5.57,2.42,8.23,8.23,0,0,1,2.39,5.91,8.84,8.84,0,0,1-.28,2,8.87,8.87,0,0,1,2.35-.31,7.69,7.69,0,0,1,5.57,2.42,8.21,8.21,0,0,1,2.09,7.93,8.2,8.2,0,0,1,7.89,2,7.69,7.69,0,0,1,2.6,5.52,8,8,0,0,1-2.44,5.93,1.3,1.3,0,0,1-.33.23L576,326A.9.9,0,0,1,575.53,326.12Zm20.86-50.94-19,48.06,47.73-19.52a6,6,0,0,0,1.71-4.28,5.67,5.67,0,0,0-2-4.08,6.15,6.15,0,0,0-8.44-.17l-.16.15a1,1,0,0,1-1.45,0,1,1,0,0,1,0-1.46h0l.16-.15a5.67,5.67,0,0,0,1.64-4,6.15,6.15,0,0,0-1.8-4.46,5.65,5.65,0,0,0-4.09-1.79,6,6,0,0,0-4.31,1.66l-.17.16a1,1,0,0,1-1.42-1.48l.15-.15a5.63,5.63,0,0,0,1.64-3.95,6.14,6.14,0,0,0-1.79-4.45,5.68,5.68,0,0,0-4.1-1.77A6.52,6.52,0,0,0,596.39,275.18Zm29.3,29.41"/><path class="cls-14" d="M573.84,327.14,583.75,302l.54-.1A23.08,23.08,0,0,1,605,308.45h0a24.92,24.92,0,0,1,2.82,3.34l.76,1.06Zm11.4-23.33-7.72,19.59L605.38,312a22.2,22.2,0,0,0-1.82-2.05h0a21.1,21.1,0,0,0-18.3-6.09Z"/><path class="cls-14" d="M662.31,310.69h-2.06V310a12.25,12.25,0,0,0-12.19-12.19H634.51v-2h13.55a14.27,14.27,0,0,1,14.25,14.25Z"/><path class="cls-14" d="M651.85,279.36a1.06,1.06,0,0,1-.73-.3,1,1,0,0,1,0-1.45C685.86,242.7,745.35,182.89,772,156.14a1.06,1.06,0,0,1,1.46,0,1,1,0,0,1,0,1.46c-26.6,26.75-86.09,86.58-120.84,121.47A1,1,0,0,1,651.85,279.36Z"/><path class="cls-14" d="M306.82,136a.71.71,0,0,1-.31-.08.64.64,0,0,1-.32-.49c0-.19-2-19.25,9.11-36.34S346.5,73,346.65,72.82a.55.55,0,0,1,.58,0,.66.66,0,0,1,.33.49c0,.19,1.86,19.24-9.12,36.33h0c-11.07,17.06-31.15,26.13-31.35,26.22A.62.62,0,0,1,306.82,136Zm39.52-61.56C342.45,76.29,326,85,316.41,99.7s-9.21,30.64-9,34.54c3.88-1.89,20.38-10.58,30-25.35C346.72,94.39,346.55,78.34,346.34,74.39Z"/><path class="cls-14" d="M283.61,120.25h-.17c-.12,0-11.68-3.27-11.68-14.72,0-11.14,10.87-26.08,11.33-26.74a.64.64,0,0,1,.69-.25c.11,0,11.68,3.27,11.68,14.71S284.59,119.34,284.12,120A.63.63,0,0,1,283.61,120.25Zm.25-40.32c-1.68,2.38-10.81,15.78-10.81,25.63,0,9.38,8.3,12.68,10.3,13.37,1.69-2.36,10.83-15.68,10.83-25.63,0-9.42-8.31-12.72-10.32-13.37Z"/><path class="cls-14" d="M284.09,204.38h-1.28V190c0-12,4.79-26.21,13.15-39L306.24,135l1.12.69-10.29,15.94c-8.22,12.57-13,26.56-13,38.31Z"/><path class="cls-14" d="M310.07,170.48a.62.62,0,0,1-.33-.07.66.66,0,0,1-.32-.5,33.08,33.08,0,0,1,5-19.93c6-9.3,16.72-14.13,17.14-14.33a.66.66,0,0,1,.58,0,.59.59,0,0,1,.32.48,33.15,33.15,0,0,1-5,19.93h0c-6,9.3-16.71,14.12-17.14,14.32A.46.46,0,0,1,310.07,170.48Zm21.17-33.25c-2.64,1.35-10.88,6-15.75,13.45a32.21,32.21,0,0,0-4.8,18.16c2.64-1.33,10.88-6,15.75-13.44a32.55,32.55,0,0,0,4.76-18.17Z"/><path class="cls-14" d="M298,208.54h-1.28v-9c0-6.35,2.64-14.14,7.26-21.36l5.57-8.66,1.12.69-5.57,8.66c-4.46,7-7.07,14.56-7.07,20.67Z"/><path class="cls-14" d="M241.39,191.46a8.83,8.83,0,0,1-3.56-.69c-6.47-2.82-5.39-14.59-5.35-15.09a.64.64,0,0,1,.29-.48c.46-.3,11.35-7.32,17.72-4.46s5.38,14.59,5.34,15.09a.66.66,0,0,1-.29.47C255.11,186.62,247.59,191.46,241.39,191.46Zm-7.65-15.35c-.12,1.83-.49,11.27,4.6,13.47h0c5.23,2.38,14.49-3.13,16.22-4.16.12-1.83.49-11.15-4.62-13.49s-14.52,3.13-16.2,4.18Z"/><path class="cls-14" d="M268.77,209.81h-1.29v-8c0-6.24-2.5-11-6.89-12.92l-5.66-2.55.52-1.17,5.66,2.55c4.87,2.22,7.66,7.32,7.66,14.09Z"/><path class="cls-14" d="M226.26,148a15.16,15.16,0,0,1-6.23-1.19c-11.38-5.11-9.47-25.88-9.38-26.75a.68.68,0,0,1,.29-.48c.82-.53,20.42-13.06,31.68-8s9.49,25.88,9.4,26.75a.62.62,0,0,1-.29.46C251,139.18,237.34,148,226.26,148ZM211.9,120.43c-.19,2.61-1.12,20.75,8.67,25.15h0c10,4.45,27.8-6.27,30.19-7.75.2-2.61,1.11-20.75-8.66-25.15S214.29,119,211.9,120.43Z"/><path class="cls-14" d="M268.66,225.62h-1.29V164.19c0-11.65-4.45-20.06-12.67-23.79l-3.57-1.61.52-1.18,3.58,1.62c8.67,3.92,13.44,12.78,13.44,25Z"/><rect class="cls-14" x="282.85" y="119.49" width="1.28" height="97.13"/><path class="cls-14" d="M463.71,216.15a.87.87,0,0,1-.52-.14L356.53,153.19a1,1,0,0,1-.37-1.4.88.88,0,0,1,.37-.37L528.69,49.88a1,1,0,0,1,1,0c.11.07,11.37,6.8,26.34,15.6l80.17,47.23a1,1,0,0,1,0,1.77L464.22,216A1,1,0,0,1,463.71,216.15ZM359.1,152.3l104.61,61.63,170-100.29L555,67.29C541.89,59.58,531.59,53.38,529.26,52Z"/><path class="cls-14" d="M463.71,269.51a1.06,1.06,0,0,1-.52-.13L356.53,206.53a1,1,0,0,1-.52-.88V152.16h2.07v52.89l105.6,62.23,171.1-100.81.12-52.38H637l-.11,53a1.07,1.07,0,0,1-.52.89L464.19,269.41A1,1,0,0,1,463.71,269.51Z"/><path class="cls-14" d="M394.28,401.12,331.22,363.9l-.12-36.77,103.84-62.19,63.65,37.81L497.88,340Zm-61-38.42,61,36,101.55-59.9L496.5,304l-61.57-36.58L333.12,328.32Z"/><path class="cls-14" d="M507,296.5a.52.52,0,0,1-.32-.09l-35.48-20.9a.66.66,0,0,1-.31-.56V246.8h1.28v27.86L507,295.19l56.55-33.36V234.07h1.28v28.06a.68.68,0,0,1-.33.56l-57.18,33.72A.52.52,0,0,1,507,296.5Z"/><path class="cls-14" d="M507,268.08a.46.46,0,0,1-.32-.09l-35.48-20.78a.66.66,0,0,1-.31-.56.63.63,0,0,1,.31-.54l57.19-33.74a.63.63,0,0,1,.65,0l35.46,20.91a.64.64,0,0,1,.26.86.57.57,0,0,1-.26.25L507.35,268A.52.52,0,0,1,507,268.08Zm-34.2-21.43L507,266.71,563,233.85l-34.2-20.16Z"/><path class="cls-14" d="M501.18,318.92a1,1,0,0,1-1-1,1,1,0,0,1,.49-.88l96.78-57a1,1,0,0,1,1.41.36,1,1,0,0,1-.37,1.41l-96.77,57A1.06,1.06,0,0,1,501.18,318.92Z"/><polygon class="cls-14" points="691.65 55.7 658.25 37.84 691.65 19.99 692.28 21.15 661.05 37.84 692.28 54.54 691.65 55.7"/><polygon class="cls-14" points="725.71 55.7 725.09 54.54 756.31 37.84 725.09 21.15 725.71 19.99 759.12 37.84 725.71 55.7"/><rect class="cls-14" x="675.64" y="37.17" width="66.02" height="1.32" transform="translate(410.58 681.85) rotate(-68.22)"/><path class="cls-14" d="M855.31,102.87a.74.74,0,0,1-.39-.11L834.61,90.87a.84.84,0,0,1-.39-.66.8.8,0,0,1,.37-.67L854.8,77.18a.8.8,0,0,1,.79,0l20.32,11.91a.76.76,0,0,1,0,1.32L855.7,102.77A.78.78,0,0,1,855.31,102.87ZM836.47,90.19l18.83,11L874,89.75l-18.82-11Z"/><path class="cls-14" d="M831.39,118a.9.9,0,0,1-.39-.1L810.66,106a.78.78,0,0,1-.25-1.06.69.69,0,0,1,.25-.26l20.22-12.36a.75.75,0,0,1,.79,0L852,104.25a.78.78,0,0,1,.26,1.06.81.81,0,0,1-.26.26l-20.22,12.36A.79.79,0,0,1,831.39,118Zm-18.83-12.67,18.82,11L850.1,105,831.27,93.9Z"/><path class="cls-14" d="M879.19,88.32a.77.77,0,0,1-.39-.11L858.5,76.29a.76.76,0,0,1,0-1.32l20.21-12.36a.75.75,0,0,1,.79,0l20.34,11.9a.77.77,0,0,1,.38.66.8.8,0,0,1-.37.67L879.62,88.21A.92.92,0,0,1,879.19,88.32ZM860.36,75.63l18.83,11,18.74-11.47-18.82-11Z"/><path class="cls-14" d="M879.1,116.72a.76.76,0,0,1-.39-.1l-20.33-11.9a.76.76,0,0,1-.38-.66.72.72,0,0,1,.37-.65l20.22-12.36a.75.75,0,0,1,.79,0L899.72,103A.78.78,0,0,1,900,104a.88.88,0,0,1-.26.25l-20.23,12.36A.67.67,0,0,1,879.1,116.72ZM860.24,104l18.83,11,18.72-11.45L879,92.6Z"/><path class="cls-14" d="M855.19,131.89a.73.73,0,0,1-.39-.1l-20.33-11.9a.76.76,0,0,1-.38-.66.73.73,0,0,1,.37-.66l20.21-12.36a.75.75,0,0,1,.79,0l20.39,11.88a.8.8,0,0,1,.38.66.78.78,0,0,1-.37.67l-20.22,12.36A.65.65,0,0,1,855.19,131.89Zm-18.84-12.68,18.82,11,18.74-11.46-18.83-11Z"/><path class="cls-14" d="M903,102.18a.74.74,0,0,1-.39-.11L882.19,90.18a.77.77,0,0,1-.39-.66.78.78,0,0,1,.37-.67L902.5,76.49a.73.73,0,0,1,.78,0l20.34,11.78a.76.76,0,0,1,.38.66.77.77,0,0,1-.36.67l-20.22,12.47A.8.8,0,0,1,903,102.18ZM884.07,89.5l18.95,11L921.75,89,902.93,78Z"/><path class="cls-14" d="M902.9,130.59a.9.9,0,0,1-.39-.1l-20.44-11.85a.77.77,0,0,1-.26-1.06.69.69,0,0,1,.26-.25L902.28,105a.75.75,0,0,1,.79,0l20.45,11.89a.77.77,0,0,1,0,1.32l-20.21,12.36A.76.76,0,0,1,902.9,130.59ZM884,117.9l18.94,11,18.72-11.39-19-11Z"/><path class="cls-14" d="M879,145.75a.6.6,0,0,1-.39-.11l-20.44-11.89a.8.8,0,0,1-.39-.66.77.77,0,0,1,.37-.66l20.22-12.36a.78.78,0,0,1,.78,0L899.58,132a.79.79,0,0,1,.39.66.82.82,0,0,1-.36.67L879.38,145.7A.79.79,0,0,1,879,145.75Zm-19-12.68,19,11,18.72-11.44-18.94-11Z"/><path class="cls-14" d="M926.82,116a.76.76,0,0,1-.39-.1L905.94,104a.73.73,0,0,1-.38-.66.71.71,0,0,1,.36-.65l20.22-12.36a.75.75,0,0,1,.79,0l20.44,11.78a.74.74,0,0,1,.39.65.79.79,0,0,1-.37.67l-20.17,12.46A.8.8,0,0,1,926.82,116Zm-19-12.68,19,11,18.72-11.54L926.6,91.91Z"/></g><g id="Layer_5" data-name="Layer 5"><path class="cls-16" d="M871.52,78.15,851.33,90.51,831,78.61,851.2,66.26Z"/><path class="cls-17" d="M895.44,63.48,875.22,75.84,854.88,64l20.23-12.47Z"/><path class="cls-18" d="M919.23,77.34,899,89.67,878.57,77.92,898.9,65.45Z"/></g></svg>