<svg id="Layer_1" data-name="Layer 1" xmlns="http://www.w3.org/2000/svg" width="596" height="408" viewBox="0 0 596 408"><defs><style>.cls-1{fill:#022537;fill-opacity:0.3;}.cls-2,.cls-4{fill:#282827;}.cls-2{fill-opacity:0.8;}.cls-3{fill:#ff9e45;}.cls-5{fill:#004a6e;}.cls-6{fill:#964221;}.cls-7{fill:#0293d2;}.cls-8{fill:#ef8821;}</style></defs><path class="cls-1" d="M356.08,122.2A52.26,52.26,0,1,0,303.74,70,52.29,52.29,0,0,0,356.08,122.2Z"/><path class="cls-2" d="M490.29,247,416.57,374.43H564Z"/><path class="cls-3" d="M167.1,100.37H79.34v87.7H167.1Z"/><path class="cls-4" d="M224.62,67.8H117v7H224.62Z"/><path class="cls-4" d="M224.62,85.34H117v7H224.62Z"/><path class="cls-4" d="M224.62,101.63H117v7H224.62Z"/><path class="cls-4" d="M224.62,119.17H117v7H224.62Z"/><path class="cls-4" d="M224.62,135.45H117v7.05H224.62Z"/><path class="cls-4" d="M224.62,153H117v7H224.62Z"/><path class="cls-1" d="M111.71,320.39a2.73,2.73,0,1,0-2.73-2.72A2.72,2.72,0,0,0,111.71,320.39Z"/><path class="cls-1" d="M129.26,320.39a2.73,2.73,0,1,0-2.73-2.72A2.72,2.72,0,0,0,129.26,320.39Z"/><path class="cls-1" d="M145.56,320.39a2.73,2.73,0,1,0-2.73-2.72A2.72,2.72,0,0,0,145.56,320.39Z"/><path class="cls-1" d="M111.71,336.68A2.73,2.73,0,1,0,109,334,2.73,2.73,0,0,0,111.71,336.68Z"/><path class="cls-1" d="M129.26,336.68a2.73,2.73,0,1,0-2.73-2.73A2.73,2.73,0,0,0,129.26,336.68Z"/><path class="cls-1" d="M145.56,336.68a2.73,2.73,0,1,0-2.73-2.73A2.73,2.73,0,0,0,145.56,336.68Z"/><path class="cls-1" d="M111.71,353a2.73,2.73,0,1,0-2.73-2.72A2.72,2.72,0,0,0,111.71,353Z"/><path class="cls-1" d="M129.26,353a2.73,2.73,0,1,0-2.73-2.72A2.72,2.72,0,0,0,129.26,353Z"/><path class="cls-1" d="M145.56,353a2.73,2.73,0,1,0-2.73-2.72A2.72,2.72,0,0,0,145.56,353Z"/><path class="cls-1" d="M111.71,368a2.73,2.73,0,1,0-2.73-2.73A2.73,2.73,0,0,0,111.71,368Z"/><path class="cls-1" d="M129.26,368a2.73,2.73,0,1,0-2.73-2.73A2.73,2.73,0,0,0,129.26,368Z"/><path class="cls-1" d="M145.56,368a2.73,2.73,0,1,0-2.73-2.73A2.73,2.73,0,0,0,145.56,368Z"/><path class="cls-1" d="M161.85,320.39a2.73,2.73,0,1,0-2.73-2.72A2.73,2.73,0,0,0,161.85,320.39Z"/><path class="cls-1" d="M178.15,320.39a2.73,2.73,0,1,0-2.73-2.72A2.72,2.72,0,0,0,178.15,320.39Z"/><path class="cls-1" d="M195.7,320.39a2.73,2.73,0,1,0-2.73-2.72A2.72,2.72,0,0,0,195.7,320.39Z"/><path class="cls-1" d="M212,320.39a2.73,2.73,0,1,0-2.73-2.72A2.72,2.72,0,0,0,212,320.39Z"/><path class="cls-1" d="M229.55,320.39a2.73,2.73,0,1,0-2.73-2.72A2.72,2.72,0,0,0,229.55,320.39Z"/><path class="cls-1" d="M161.85,336.68a2.73,2.73,0,1,0-2.73-2.73A2.74,2.74,0,0,0,161.85,336.68Z"/><path class="cls-1" d="M178.15,336.68a2.73,2.73,0,1,0-2.73-2.73A2.73,2.73,0,0,0,178.15,336.68Z"/><path class="cls-1" d="M195.7,336.68A2.73,2.73,0,1,0,193,334,2.73,2.73,0,0,0,195.7,336.68Z"/><path class="cls-1" d="M212,336.68a2.73,2.73,0,1,0-2.73-2.73A2.73,2.73,0,0,0,212,336.68Z"/><path class="cls-1" d="M229.55,336.68a2.73,2.73,0,1,0-2.73-2.73A2.73,2.73,0,0,0,229.55,336.68Z"/><path class="cls-1" d="M161.85,353a2.73,2.73,0,1,0-2.73-2.72A2.73,2.73,0,0,0,161.85,353Z"/><path class="cls-1" d="M178.15,353a2.73,2.73,0,1,0-2.73-2.72A2.72,2.72,0,0,0,178.15,353Z"/><path class="cls-1" d="M195.7,353a2.73,2.73,0,1,0-2.73-2.72A2.72,2.72,0,0,0,195.7,353Z"/><path class="cls-1" d="M212,353a2.73,2.73,0,1,0-2.73-2.72A2.72,2.72,0,0,0,212,353Z"/><path class="cls-1" d="M229.55,353a2.73,2.73,0,1,0-2.73-2.72A2.72,2.72,0,0,0,229.55,353Z"/><path class="cls-1" d="M161.85,368a2.73,2.73,0,1,0-2.73-2.73A2.74,2.74,0,0,0,161.85,368Z"/><path class="cls-1" d="M178.15,368a2.73,2.73,0,1,0-2.73-2.73A2.73,2.73,0,0,0,178.15,368Z"/><path class="cls-1" d="M195.7,368a2.73,2.73,0,1,0-2.73-2.73A2.73,2.73,0,0,0,195.7,368Z"/><path class="cls-1" d="M212,368a2.73,2.73,0,1,0-2.73-2.73A2.73,2.73,0,0,0,212,368Z"/><path class="cls-1" d="M229.55,368a2.73,2.73,0,1,0-2.73-2.73A2.73,2.73,0,0,0,229.55,368Z"/><path d="M227.11,305.94l-.75-.94,3.9-3.12.75.93Zm10.14-8.13-.75-.94,3.91-3.12.75.93Zm10.15-8.13-.75-.94,3.9-3.12.75.93Zm10.14-8.13-.75-.94,3.91-3.12.75.93Zm111.6-89.42-.75-.93,3.9-3.13.75.94ZM379.28,184l-.75-.93,3.91-3.13.75.94Zm10.15-8.12-.75-.94,3.9-3.13.75.94Zm10.14-8.13-.75-.94,3.91-3.13.75.94Zm10.15-8.13-.75-.94,3.9-3.12.75.93Zm10.14-8.13-.75-.94,3.91-3.12.75.93ZM430,143.36l-.75-.94,3.9-3.12.75.93Zm10.14-8.13-.75-.93,3.91-3.13.75.94Zm10.15-8.13-.75-.93,3.9-3.13.75.94ZM460.44,119l-.75-.93,3.91-3.13.75.94Zm10.15-8.12-.75-.94,3.9-3.13.75.94Zm10.14-8.13-.75-.94,3.91-3.13.75.94Z"/><path d="M481.46,309.8l-4.54-2.09.5-1.09,4.54,2.09Zm-11.81-5.43-4.54-2.09.5-1.09,4.54,2.09Zm-11.81-5.43-4.54-2.09.5-1.09,4.54,2.09ZM446,293.51l-4.54-2.09.5-1.09,4.54,2.09Zm-11.81-5.43L429.67,286l.5-1.09,4.55,2.09Zm-11.82-5.43-4.54-2.09.5-1.09,4.55,2.09Zm-11.81-5.43-4.54-2.09.5-1.09,4.54,2.09Zm-11.81-5.43-4.54-2.09.5-1.09,4.54,2.09ZM387,266.36l-4.54-2.09.5-1.09,4.54,2.09Zm-11.81-5.43-4.54-2.09.5-1.09,4.54,2.09ZM245.23,201.2l-4.54-2.09.5-1.09,4.54,2.09Zm-11.81-5.43-4.54-2.09.5-1.09,4.54,2.09Zm-11.81-5.43-4.55-2.09.51-1.09,4.54,2.09Zm-11.82-5.43-4.54-2.09.5-1.09,4.55,2.09ZM198,179.48l-4.54-2.09.5-1.09,4.54,2.09Zm-11.81-5.43L181.63,172l.5-1.09,4.54,2.09Zm-11.81-5.43-4.54-2.09.5-1.09,4.54,2.09Zm-11.81-5.43L158,161.1l.51-1.09,4.54,2.09Zm-11.81-5.43-4.55-2.09.51-1.09,4.54,2.09Z"/><path d="M131.73,258.69l-.16-1.19,5-.68.17,1.19Zm12.88-1.77-.16-1.18,5-.68.16,1.19Zm12.88-1.76-.16-1.18,5-.68.16,1.19Zm12.88-1.76-.16-1.19,5-.67.16,1.19Zm12.88-1.76-.16-1.19,5-.67.16,1.19Zm12.88-1.76-.16-1.19,5-.67.16,1.18ZM209,248.12l-.16-1.19,5-.67.16,1.18Zm12.88-1.76-.16-1.19,5-.68.16,1.19Zm12.88-1.76-.16-1.19,5-.68.16,1.19Zm141.69-19.37-.17-1.19,5-.67.16,1.19Zm12.88-1.76-.17-1.19,5-.67.16,1.19Zm12.88-1.76-.16-1.19,4.95-.67.16,1.18ZM415.1,220l-.16-1.19,4.95-.68.16,1.19ZM428,218.19l-.16-1.19,4.95-.68.16,1.19Zm12.88-1.76-.16-1.19,4.95-.68.16,1.19Zm12.88-1.76-.16-1.19,4.95-.68.16,1.19Zm12.88-1.76-.16-1.19,5-.68.16,1.19Zm12.88-1.76-.16-1.19,5-.68.16,1.19Zm12.88-1.76-.16-1.19,4.95-.68.16,1.19Z"/><path d="M288,395.55l-1.18-.23.94-4.91,1.18.22Zm2.44-12.77-1.18-.23.95-4.91,1.17.23ZM292.93,370l-1.18-.23.94-4.91,1.18.23Zm2.44-12.77-1.18-.22.94-4.92,1.18.23Zm2.45-12.77-1.18-.22.94-4.91,1.18.22Zm2.44-12.76-1.18-.23.94-4.91,1.18.22Zm2.45-12.77-1.18-.23.94-4.91,1.18.23Zm2.44-12.77-1.18-.23.94-4.91,1.18.23ZM332,165.72l-1.18-.23.94-4.91,1.18.23ZM334.49,153l-1.18-.22.94-4.91,1.18.22Zm2.44-12.77-1.18-.22.94-4.91,1.18.22Zm2.45-12.76-1.18-.23.94-4.91,1.18.23Zm2.44-12.77-1.18-.23.94-4.91,1.18.23Zm2.44-12.77-1.17-.23.94-4.91,1.18.23Zm2.45-12.77-1.18-.22.94-4.91,1.18.22Z"/><path class="cls-5" d="M308.31,250.08l-13.25-7.79,13.21-7.78,13.25,7.78Z"/><path class="cls-6" d="M308.25,212.18l-13.2,7.8,13.22,7.78L321.48,220Z"/><path class="cls-7" d="M321.58,204.36l-13.33,7.82,22.2,13.07V237l-22.14,13.08,13.3,7.86,22.46-13.26,0-27Z"/><path class="cls-8" d="M286.06,237V225.25l22.19-13.07-13.32-7.82-22.53,13.3,0,27,22.47,13.26,13.41-7.86Z"/></svg>