<svg id="Layer_1" data-name="Layer 1" xmlns="http://www.w3.org/2000/svg" width="520" height="264" viewBox="0 0 520 264"><defs><style>.cls-1{fill:#002f44;}.cls-2{fill:#0093d2;}.cls-3{fill:#fff;}.cls-4{fill:#bdc5c8;opacity:0.6;}.cls-5{fill:#fdffff;opacity:0.2;isolation:isolate;}</style></defs><path class="cls-1" d="M520,0H0V264H520Z"/><path class="cls-2" d="M204.71,93.54h-163A7.54,7.54,0,0,1,34.21,86V38a7.54,7.54,0,0,1,7.52-7.54h163A7.55,7.55,0,0,1,212.24,38V86A7.54,7.54,0,0,1,204.71,93.54Zm-163-61.08A5.54,5.54,0,0,0,36.21,38V86a5.54,5.54,0,0,0,5.52,5.54h163A5.53,5.53,0,0,0,210.24,86V38a5.54,5.54,0,0,0-5.53-5.54Z"/><path class="cls-2" d="M412.24,92.54h-163A6.55,6.55,0,0,1,242.74,86V38a6.55,6.55,0,0,1,6.52-6.54h163A6.56,6.56,0,0,1,418.77,38V86A6.56,6.56,0,0,1,412.24,92.54Z"/><path class="cls-3" d="M349.66,135.3a3.3,3.3,0,0,1-3.08-2.13L327.82,83.08a3.2,3.2,0,0,1,0-2.28,3.3,3.3,0,0,1,4.25-1.94l50,18.63a3.52,3.52,0,0,1,2,1.92l0,.09a3.3,3.3,0,0,1-2.05,4.19L367,108.37l16.54,16.11a3.27,3.27,0,0,1,0,4.66l-4.68,4.68a3.3,3.3,0,0,1-4.65,0L357.54,117.6,352.8,133a3.34,3.34,0,0,1-2,2.11A3.25,3.25,0,0,1,349.66,135.3ZM330.9,81.25a.7.7,0,0,0-.65.45.67.67,0,0,0,0,.44L349,132.25a.7.7,0,0,0,.89.41.77.77,0,0,0,.43-.47l6-19.42L376,132a.7.7,0,0,0,1,0l4.68-4.68a.68.68,0,0,0,.21-.48.71.71,0,0,0-.21-.49L362,107.17l19.3-6a.63.63,0,0,0,.35-.33.64.64,0,0,0,0-.48.89.89,0,0,0-.48-.46h0L331.14,81.29A.67.67,0,0,0,330.9,81.25Z"/><rect class="cls-3" x="329.59" y="53.94" width="13.16" height="2.6" transform="matrix(0.05, -1, 1, 0.05, 264.33, 388.26)"/><rect class="cls-3" x="312.92" y="52.22" width="2.6" height="14.62" transform="translate(35.6 216.53) rotate(-40.13)"/><rect class="cls-3" x="302.29" y="71.94" width="2.6" height="15.93" transform="translate(186.61 371.22) rotate(-82.87)"/><path class="cls-4" d="M454.74,205.47H400.51a20.49,20.49,0,0,1-20.45-20.41v-3.13a20.49,20.49,0,0,1,20.45-20.42h54.23a20.49,20.49,0,0,1,20.44,20.42v3.13A20.48,20.48,0,0,1,454.74,205.47Z"/><path class="cls-1" d="M453.45,199.47A16.5,16.5,0,1,0,436.93,183,16.51,16.51,0,0,0,453.45,199.47Z"/><path class="cls-2" d="M86.15,185.16a18.47,18.47,0,1,1,18.49-18.47A18.5,18.5,0,0,1,86.15,185.16Zm0-34.94a16.47,16.47,0,1,0,16.49,16.47A16.5,16.5,0,0,0,86.15,150.22Z"/><path class="cls-5" d="M323.41,175.57H129.52a7,7,0,1,1,0-14H323.41a7,7,0,1,1,0,14Z"/><path class="cls-2" d="M86.15,234.17a18.47,18.47,0,1,1,18.49-18.47A18.5,18.5,0,0,1,86.15,234.17Zm0-34.94a16.47,16.47,0,1,0,16.49,16.47A16.5,16.5,0,0,0,86.15,199.23Z"/><path class="cls-2" d="M86.15,223.54a7.84,7.84,0,1,0-7.85-7.84A7.85,7.85,0,0,0,86.15,223.54Z"/><path class="cls-5" d="M323.41,224.58H129.52a7,7,0,1,1,0-14H323.41a7,7,0,1,1,0,14Z"/></svg>