<svg xmlns="http://www.w3.org/2000/svg" xmlns:xlink="http://www.w3.org/1999/xlink" width="520" height="264" viewBox="0 0 520 264"><defs><style>.cls-1,.cls-5{fill:none;}.cls-2{clip-path:url(#clip-path);}.cls-3,.cls-7{fill:#002f44;}.cls-4{fill:#0093d2;opacity:0.4;}.cls-5,.cls-7{stroke:#fff;stroke-miterlimit:10;}.cls-6,.cls-8{fill:#fff;}.cls-6{opacity:0.8;isolation:isolate;}.cls-9{fill:#ef443c;}.cls-10{fill:#efcb35;}</style><clipPath id="clip-path"><path class="cls-1" d="M520,0H0V264H520Z"/></clipPath></defs><g id="Layer_2" data-name="Layer 2"><g class="cls-2"><path class="cls-3" d="M520,0H0V264H520Z"/><path class="cls-4" d="M223.5-4.5H-2.87V267.4H22v.71h1v-.71H46.87v.71h1v-.71H71.73v.71h1v-.71H96.6v.71h1v-.71h23.87v.71h1v-.71h23.87v.71h1v-.71h23.85v.71h1v-.71h23.88v.71h1v-.71H223.5ZM96.6,120.86v23.87H72.73V120.86Zm-23.87-1V96H96.6v23.88ZM96.6,145.73v23.86H72.73V145.73Zm1,0h23.87v23.86H97.6Zm0-1V120.86h23.87v23.87Zm0-24.87V96h23.87v23.88ZM97.6,95V71.11h23.87V95Zm0-24.87V46.25h23.87V70.11Zm-1,0H72.73V46.25H96.6Zm0,1V95H72.73V71.11ZM71.73,95H47.87V71.11H71.73Zm0,1v23.88H47.87V96Zm0,24.88v23.87H47.87V120.86Zm0,24.87v23.86H47.87V145.73Zm0,24.86v23.87H47.87V170.59Zm1,0H96.6v23.87H72.73Zm24.87,0h23.87v23.87H97.6Zm24.87,0h23.87v23.87H122.47Zm0-1V145.73h23.87v23.86Zm0-24.86V120.86h23.87v23.87Zm0-24.87V96h23.87v23.88Zm0-24.88V71.11h23.87V95Zm0-24.87V46.25h23.87V70.11Zm0-24.86V21.38h23.87V45.25Zm-1,0H97.6V21.38h23.87Zm-24.87,0H72.73V21.38H96.6Zm-24.87,0H47.87V21.38H71.73Zm0,1V70.11H47.87V46.25ZM46.87,70.11H23V46.25H46.87Zm0,1V95H23V71.11Zm0,24.87v23.88H23V96Zm0,24.88v23.87H23V120.86Zm0,24.87v23.86H23V145.73Zm0,24.86v23.87H23V170.59Zm0,24.87v23.27H23V195.46Zm1,0H71.73v23.27H47.87Zm24.86,0H96.6v23.27H72.73Zm24.87,0h23.87v23.27H97.6Zm24.87,0h23.87v23.27H122.47Zm24.87,0h23.85v23.27H147.34Zm0-1V170.59h23.85v23.87Zm0-24.87V145.73h23.85v23.86Zm0-24.86V120.86h23.85v23.87Zm0-24.87V96h23.85v23.88Zm0-24.88V71.11h23.85V95Zm0-24.87V46.25h23.85V70.11Zm0-24.86V21.38h23.85V45.25Zm0-24.87V-3.5h23.85V20.38Zm-1,0H122.47V-3.5h23.87Zm-24.87,0H97.6V-3.5h23.87Zm-24.87,0H72.73V-3.5H96.6Zm-24.87,0H47.87V-3.5H71.73Zm-24.86,0H23V-3.5H46.87Zm0,1V45.25H23V21.38ZM22,45.25H-1.87V21.38H22Zm0,1V70.11H-1.87V46.25Zm0,24.86V95H-1.87V71.11ZM22,96v23.88H-1.87V96Zm0,24.88v23.87H-1.87V120.86Zm0,24.87v23.86H-1.87V145.73Zm0,24.86v23.87H-1.87V170.59Zm0,24.87v23.27H-1.87V195.46Zm0,24.27V243H-1.87V219.73Zm1,0H46.87V243H23Zm24.87,0H71.73V243H47.87Zm24.86,0H96.6V243H72.73Zm24.87,0h23.87V243H97.6Zm24.87,0h23.87V243H122.47Zm24.87,0h23.85V243H147.34Zm24.85,0h23.88V243H172.19Zm0-1V195.46h23.88v23.27Zm0-24.27V170.59h23.88v23.87Zm0-24.87V145.73h23.88v23.86Zm0-24.86V120.86h23.88v23.87Zm0-24.87V96h23.88v23.88Zm0-24.88V71.11h23.88V95Zm0-24.87V46.25h23.88V70.11Zm0-24.86V21.38h23.88V45.25Zm0-24.87V-3.5h23.88V20.38ZM22-3.5V20.38H-1.87V-3.5ZM-1.87,266.4V244H22v22.4Zm24.87,0V244H46.87v22.4Zm24.87,0V244H71.73v22.4Zm24.86,0V244H96.6v22.4Zm24.87,0V244h23.87v22.4Zm24.87,0V244h23.87v22.4Zm24.87,0V244h23.85v22.4Zm24.85,0V244h23.88v22.4Zm50.31,0H197.07V244h24.37v-1H197.07V219.73h24.37v-1H197.07V195.46h24.37v-1H197.07V170.59h24.37v-1H197.07V145.73h24.37v-1H197.07V120.86h24.37v-1H197.07V96h24.37V95H197.07V71.11h24.37v-1H197.07V46.25h24.37v-1H197.07V21.38h24.37v-1H197.07V-3.5H222.5Z"/><path class="cls-5" d="M463.5,51.67H290.93V224.26H463.5Z"/><path class="cls-6" d="M376.39,132A33.89,33.89,0,1,0,342.5,98.08,33.87,33.87,0,0,0,376.39,132Zm0-58.08a24.2,24.2,0,1,1-24.2,24.2A24.19,24.19,0,0,1,376.39,73.88Z"/><path class="cls-6" d="M436.73,167.65a83,83,0,0,0-117.41-3.25q-1.68,1.57-3.25,3.25a9.65,9.65,0,0,0-2.61,6.63v25.46a9.67,9.67,0,0,0,9.67,9.68H429.6a9.67,9.67,0,0,0,9.67-9.68V174.28A9.45,9.45,0,0,0,436.73,167.65Zm-7.12,32.09H323.14V174.23A73.44,73.44,0,0,1,427,171.54c.92.88,1.81,1.76,2.68,2.69v25.51Z"/><path class="cls-7" d="M294.17,47H286v8.18h8.18Z"/><path class="cls-7" d="M467.69,47h-8.17v8.18h8.17Z"/><path class="cls-7" d="M382.24,47h-8.18v8.18h8.18Z"/><path class="cls-7" d="M382.24,221.83h-8.18V230h8.18Z"/><path class="cls-7" d="M294.17,221.83H286V230h8.18Z"/><path class="cls-7" d="M467.27,131.2h-8.18v8.18h8.18Z"/><path class="cls-7" d="M467.27,220.07h-8.18v8.18h8.18Z"/><path class="cls-7" d="M294.65,131.2h-8.18v8.18h8.18Z"/><path class="cls-8" d="M149.56,76A14.84,14.84,0,1,0,164.4,61.19,14.75,14.75,0,0,0,149.56,76ZM175,76A10.6,10.6,0,1,1,164.4,65.44,10.48,10.48,0,0,1,175,76Z"/><path class="cls-8" d="M195.55,69l-5.93-1.91-.22-.63a21.5,21.5,0,0,1-5.09-.85,32,32,0,0,1,1.69,4l.22,1.06,7.63,2.34V79l-7.63,2.34L186,82.42l-1.9,4.44-.63,1.06,3.81,7L183,99.17l-7-3.82L175,96a20.31,20.31,0,0,1-4.45,1.91l-1.06.22-2.33,7.62H161.2l-2.34-7.62-1.06-.22L153.36,96l-1.06-.63-7,3.82-4.25-4.25,3.82-7-.63-1.06a20.24,20.24,0,0,1-1.91-4.44l-.21-1.06L134.49,79V73.08L141.7,71l.43-1.06A18,18,0,0,1,144,65.24l.63-1.06-3.6-7,4.25-4.25,6.78,3.82,1.06-.63a18,18,0,0,1,4.66-1.91l1.06-.43,2.34-7.41h5.93l2.34,7.41,1.06.43a24.36,24.36,0,0,1,4,1.69,14.78,14.78,0,0,1-.85-5.3l-.84-.43L171,44.23a3.58,3.58,0,0,0-3.18-2.12h-7.21a3,3,0,0,0-3,2.53l-1.91,5.94a9.32,9.32,0,0,0-3.4,1.28l-5.5-3a3.57,3.57,0,0,0-4,.63l-5.09,5.09a3.54,3.54,0,0,0-.63,4L139.81,64c-.43,1.06-.84,2.33-1.28,3.4l-5.93,1.9a3.44,3.44,0,0,0-2.34,3.19v7.21a3.39,3.39,0,0,0,2.54,3.18l5.93,1.91L140,87.92l-3,5.51a3.57,3.57,0,0,0,.63,4l5.09,5.09a3.54,3.54,0,0,0,4,.63l5.51-3,3.18,1.28,1.91,6.15a3.44,3.44,0,0,0,3.18,2.34h7.21a3.48,3.48,0,0,0,3.19-2.34l1.9-6.15,3.19-1.28,5.5,3a3.57,3.57,0,0,0,4-.63l5.09-5.09a3.54,3.54,0,0,0,.63-4l-3-5.51,1.28-3.18,6.15-1.91a3.44,3.44,0,0,0,2.34-3.18V72.44A3.7,3.7,0,0,0,195.55,69Z"/><path class="cls-9" d="M189.62,61.19A10.6,10.6,0,1,0,179,50.6,10.59,10.59,0,0,0,189.62,61.19Z"/><path class="cls-8" d="M52.83,45.74A23.86,23.86,0,1,1,29,69.6,23.88,23.88,0,0,1,52.83,45.74Zm0-4.35A28.21,28.21,0,1,0,81,69.6,28.21,28.21,0,0,0,52.83,41.39Z"/><path class="cls-8" d="M88.88,201.87a31.35,31.35,0,0,1-5.36-6.37,27.48,27.48,0,0,1-2.93-10.45V174.34A23.47,23.47,0,0,0,60,151v-2.79a2.89,2.89,0,1,0-5.77,0v2.84A23.44,23.44,0,0,0,34,174.34v10.71a27.52,27.52,0,0,1-2.94,10.45,31.76,31.76,0,0,1-5.35,6.37,2.19,2.19,0,0,0-.75,1.64v3a2.18,2.18,0,0,0,2.17,2.17H87.48a2.18,2.18,0,0,0,2.18-2.17v-3A2.41,2.41,0,0,0,88.88,201.87Zm-59.41,2.42a35.45,35.45,0,0,0,5.29-6.52,31.44,31.44,0,0,0,3.56-12.7V174.36a19,19,0,1,1,37.91,0v10.71a31.6,31.6,0,0,0,3.56,12.7,34.44,34.44,0,0,0,5.29,6.52Z"/><path class="cls-8" d="M93.42,107.13l-4.24-4.26L77.42,91l-3.08,3.06,14.87,15,1.11,1.13a2.18,2.18,0,0,0,3.1-3.07Z"/><path class="cls-8" d="M57.89,215.75a5.8,5.8,0,0,0,5.7-4.95H52.2A5.77,5.77,0,0,0,57.89,215.75Z"/><path class="cls-8" d="M141.32,164.77l12.25-12.25a2.26,2.26,0,0,1,3.19,0l.91.91a2.25,2.25,0,0,1,0,3.18l-12.26,12.26a2.26,2.26,0,0,1-3.18,0l-.91-.92A2.28,2.28,0,0,1,141.32,164.77Z"/><path class="cls-8" d="M176.84,171.47l1.41-1.41a12.17,12.17,0,0,0,1.41-1.72h-6l-3.18,3.15,25.78,25.78v8.36h-7.05l-4-3.95V195.4H177v-6.73H166.61l-6.74-6.74-4,4.2a6.71,6.71,0,0,1-9.52,0l-11.82-12a6.71,6.71,0,0,1,0-9.52l19.23-19.23a6.71,6.71,0,0,1,9.52,0l6.28,6.43,2.24-4-5.37-5.45a11.24,11.24,0,0,0-15.88,0l-19.19,19.2a11.27,11.27,0,0,0,0,15.89l11.83,11.82a11.24,11.24,0,0,0,15.88,0l.9-.9,4.89,4.86h7.72V200h8.29v3.66l6.45,6.5h13.48V195.43Z"/><path class="cls-10" d="M184.69,136.28l-12.85,22.15a2.89,2.89,0,0,0,2.47,4.5H200a2.88,2.88,0,0,0,3-2.79,2.81,2.81,0,0,0-.5-1.71l-12.85-22.15a2.86,2.86,0,0,0-3.93-1A3,3,0,0,0,184.69,136.28Z"/><path class="cls-1" d="M520,0H0V264H520Z"/></g></g></svg>